<svg id="vector" xmlns="http://www.w3.org/2000/svg" width="24" height="24" viewBox="0 0 960 960"><path fill="@android:color/white" d="M380,220Q347,220 323.5,196.5Q300,173 300,140Q300,107 323.5,83.5Q347,60 380,60Q413,60 436.5,83.5Q460,107 460,140Q460,173 436.5,196.5Q413,220 380,220ZM120,920L230,356L160,386L160,520L80,520L80,332L290,246Q317,235 345,243.5Q373,252 388,278L426,342Q453,386 498.5,413Q544,440 600,440L600,520Q534,520 477.5,492Q421,464 382,416L358,536L440,618L440,920L360,920L360,680L274,600L204,920L120,920ZM670,920L670,360L520,360L520,80L880,80L880,360L730,360L730,920L670,920ZM721,319L820,220L721,121L678,164L704,190L580,190L580,250L704,250L678,276L721,319Z" id="path_0"/></svg>